<svg width="15px" height="15px" enable-background="new 0 0 512 512" version="1.1" viewBox="0 0 512 512" xml:space="preserve" xmlns="http://www.w3.org/2000/svg"><path d="m329.96 399.83h-147.91c-9.425 0-17.067 7.641-17.067 17.067s7.641 17.067 17.067 17.067h147.91c9.425 0 17.067-7.641 17.067-17.067s-7.641-17.067-17.066-17.067z"/><path d="m329.96 346.01h-147.91c-9.425 0-17.067 7.641-17.067 17.067s7.641 17.067 17.067 17.067h147.91c9.425 0 17.067-7.641 17.067-17.067s-7.641-17.067-17.066-17.067z"/><path d="m472.18 133.91h-54.303v-98.775c0-9.425-7.641-17.067-17.067-17.067h-289.62c-9.425 0-17.067 7.641-17.067 17.067v98.775h-54.303c-21.958 0-39.822 17.865-39.822 39.823v171.7c0 21.958 17.864 39.822 39.822 39.822h54.306v91.614c0 9.425 7.641 17.067 17.067 17.067h289.61c9.425 0 17.067-7.641 17.067-17.067v-91.614h54.306c21.958 0 39.822-17.864 39.822-39.822v-171.7c0-21.957-17.864-39.823-39.822-39.823zm-343.92-81.708h255.48v81.708h-255.48v-81.708zm255.48 407.6h-255.48v-139.63h255.48c-1e-3 4.229-1e-3 136.42-1e-3 139.63zm17.07-225.68h-43.443c-9.425 0-17.067-7.641-17.067-17.067s7.641-17.067 17.067-17.067h43.443c9.425 0 17.067 7.641 17.067 17.067s-7.641 17.067-17.067 17.067z"/></svg>